<svg id="Layer_1" data-name="Layer 1" xmlns="http://www.w3.org/2000/svg" viewBox="0 0 190.08 25.62"><defs><style>.cls-1{fill:#8cd1e9;}.cls-2{fill:#fff;}</style></defs><title>EC_Color_Inverted1</title><path class="cls-1" d="M35.89.82H46.06V4H39.31v7H45.2v3.21H39.31v7h6.75v3.41H35.89Z"/><path class="cls-1" d="M59.78,19.32a5.39,5.39,0,0,1-.42,2.1,5.53,5.53,0,0,1-1.15,1.76,5.78,5.78,0,0,1-1.72,1.2,5.09,5.09,0,0,1-2.13.46,7.54,7.54,0,0,1-2-.27,4.73,4.73,0,0,1-3.13-2.65,6.12,6.12,0,0,1-.52-2.71V6.1a5.74,5.74,0,0,1,.4-2.17,5.16,5.16,0,0,1,1.14-1.74A5.34,5.34,0,0,1,52,1,5.85,5.85,0,0,1,54.29.61,5.61,5.61,0,0,1,56.47,1,5.23,5.23,0,0,1,58.21,2.2,5.54,5.54,0,0,1,59.36,4a6.14,6.14,0,0,1,.42,2.29V7.64H56.37V6.5a2.76,2.76,0,0,0-.57-1.74A1.84,1.84,0,0,0,54.26,4a1.74,1.74,0,0,0-1.69.78,4.22,4.22,0,0,0-.42,2V19a3.17,3.17,0,0,0,.45,1.74,1.8,1.8,0,0,0,1.63.7,2.8,2.8,0,0,0,.72-.11,2,2,0,0,0,.7-.39,2,2,0,0,0,.52-.74,3,3,0,0,0,.2-1.17V17.84h3.41Z"/><path class="cls-2" d="M74.27,19.28a5.49,5.49,0,0,1-1.63,3.93,5.59,5.59,0,0,1-1.75,1.19,5.36,5.36,0,0,1-2.14.44,5.29,5.29,0,0,1-2.14-.44,5.63,5.63,0,0,1-3-2.94,5.44,5.44,0,0,1-.43-2.18V.82h3.41V19a2.56,2.56,0,0,0,.6,1.87,2.19,2.19,0,0,0,3,0,2.56,2.56,0,0,0,.6-1.87V.82h3.42Z"/><path class="cls-2" d="M80.39,4h-4V.82H87.75V4h-4v20.6H80.39Z"/><path class="cls-2" d="M89.92.82h5a6.89,6.89,0,0,1,2.79.5,5.18,5.18,0,0,1,1.89,1.34,4.87,4.87,0,0,1,1,1.92A8.07,8.07,0,0,1,101,6.84v.87a7.7,7.7,0,0,1-.15,1.64,4.07,4.07,0,0,1-.45,1.17,3.68,3.68,0,0,1-.74.88,6,6,0,0,1-1,.72,3.73,3.73,0,0,1,1.77,1.69,6.68,6.68,0,0,1,.57,3v1.33A6.93,6.93,0,0,1,99.44,23c-1,1.12-2.64,1.67-4.87,1.67H89.92Zm3.41,9.76h1.54a2.6,2.6,0,0,0,2.29-.85,4.4,4.4,0,0,0,.59-2.49,3.81,3.81,0,0,0-.65-2.41A2.89,2.89,0,0,0,94.74,4H93.33Zm0,10.64h1.48a3.6,3.6,0,0,0,1.62-.3,2,2,0,0,0,.88-.84,2.91,2.91,0,0,0,.37-1.27,15.85,15.85,0,0,0,.07-1.6,10.27,10.27,0,0,0-.1-1.57,2.72,2.72,0,0,0-.42-1.13,1.92,1.92,0,0,0-.89-.68,3.92,3.92,0,0,0-1.5-.24H93.33Z"/><path class="cls-2" d="M104.94.82h3.41V24.63h-3.41Z"/><path class="cls-2" d="M112.33.82h3.42v20.4h6.75v3.41H112.33Z"/><path class="cls-2" d="M125.38.82h5.05a5.84,5.84,0,0,1,4.45,1.62A6.3,6.3,0,0,1,136.42,7V18.11a6.66,6.66,0,0,1-1.62,4.94,6.4,6.4,0,0,1-4.67,1.58h-4.75Zm3.41,20.6h1.58a2.54,2.54,0,0,0,2-.72,3.48,3.48,0,0,0,.6-2.25V7a3.57,3.57,0,0,0-.57-2.17A2.41,2.41,0,0,0,130.37,4h-1.58Z"/><path class="cls-2" d="M140.17.82h3.28l5.15,14.35h.07V.82h3.41V24.63h-3.21l-5.22-14.31h-.07V24.63h-3.41Z"/><path class="cls-2" d="M155.92.82h3.42V24.63h-3.42Z"/><path class="cls-2" d="M163.18.82h3.28l5.15,14.35h.07V.82h3.41V24.63h-3.21l-5.22-14.31h-.06V24.63h-3.42Z"/><path class="cls-2" d="M178.64,6.44a6.2,6.2,0,0,1,.5-2.55,5.24,5.24,0,0,1,1.32-1.82A5.82,5.82,0,0,1,182.3,1a5.92,5.92,0,0,1,4.12,0,5.82,5.82,0,0,1,1.84,1.09,5.51,5.51,0,0,1,1.32,1.82,6.2,6.2,0,0,1,.5,2.55v1.2h-3.41V6.44A2.27,2.27,0,0,0,186,4.61,2.42,2.42,0,0,0,184.36,4a2.39,2.39,0,0,0-1.62.58,2.27,2.27,0,0,0-.69,1.83V19a2.27,2.27,0,0,0,.69,1.83,2.39,2.39,0,0,0,1.62.58,2.42,2.42,0,0,0,1.62-.58,2.27,2.27,0,0,0,.69-1.83V14.53H184v-3h6.12V19a6.09,6.09,0,0,1-.5,2.56,5.47,5.47,0,0,1-1.32,1.81,5.82,5.82,0,0,1-1.84,1.09,5.92,5.92,0,0,1-4.12,0,5.82,5.82,0,0,1-1.84-1.09,5.2,5.2,0,0,1-1.32-1.81,6.09,6.09,0,0,1-.5-2.56Z"/><path class="cls-1" d="M13.48,0V4.44a8.39,8.39,0,0,1,0,16.74v4.43a12.82,12.82,0,0,0,0-25.6Z"/><path class="cls-1" d="M14.77,12.81a2.21,2.21,0,0,0-2.21-2.21H4.73a8.43,8.43,0,0,1,7.69-6.17V0a12.82,12.82,0,0,0,0,25.62V21.19A8.42,8.42,0,0,1,4.73,15h7.83A2.21,2.21,0,0,0,14.77,12.81Z"/></svg>