<?xml version="1.0" encoding="UTF-8"?>
<svg width="300px" height="300px" viewBox="0 0 300 300" version="1.1" xmlns="http://www.w3.org/2000/svg" xmlns:xlink="http://www.w3.org/1999/xlink">
    <!-- Generator: Sketch 49 (51002) - http://www.bohemiancoding.com/sketch -->
    <title>global/brand/pattern</title>
    <desc>Created with Sketch.</desc>
    <defs>
        <rect id="path-1" x="0" y="0" width="300" height="300"></rect>
        <path d="M9.19224411,23.7067757 C11.0773785,26.2787703 18.767373,28.2044393 27.9672897,28.2044393 C37.1672065,28.2044393 44.857201,26.2787703 46.7423353,23.7067757 C47.0319723,24.1019437 47.1845794,24.5123689 47.1845794,24.9334112 L47.1845794,31.0665888 C47.1845794,34.2280319 38.5807058,36.7908879 27.9672897,36.7908879 C17.3538737,36.7908879 8.75,34.2280319 8.75,31.0665888 L8.75,24.9334112 C8.75,24.5123689 8.90260713,24.1019437 9.19224411,23.7067757 Z M9.19224411,36.7908879 C11.0773785,39.3628825 18.767373,41.2885514 27.9672897,41.2885514 C37.1672065,41.2885514 44.857201,39.3628825 46.7423353,36.7908879 C47.0319723,37.1860558 47.1845794,37.596481 47.1845794,38.0175234 L47.1845794,44.1507009 C47.1845794,47.312144 38.5807058,49.875 27.9672897,49.875 C17.3538737,49.875 8.75,47.312144 8.75,44.1507009 L8.75,38.0175234 C8.75,37.596481 8.90260713,37.1860558 9.19224411,36.7908879 Z M27.9672897,47.8306075 C29.3221939,47.8306075 30.4205607,46.7322406 30.4205607,45.3773364 C30.4205607,44.0224323 29.3221939,42.9240654 27.9672897,42.9240654 C26.6123855,42.9240654 25.5140187,44.0224323 25.5140187,45.3773364 C25.5140187,46.7322406 26.6123855,47.8306075 27.9672897,47.8306075 Z M47.1845794,17.9824766 C47.1845794,21.1439197 38.5807058,23.7067757 27.9672897,23.7067757 C17.3538737,23.7067757 8.75,21.1439197 8.75,17.9824766 L8.75,11.8492991 C8.75,8.68785599 17.3538737,6.125 27.9672897,6.125 C38.5807058,6.125 47.1845794,8.68785599 47.1845794,11.8492991 L47.1845794,17.9824766 Z" id="path-3"></path>
        <path d="M51.09825,24.5032263 C52.0410625,25.4707632 52.82025,26.4920764 53.3990625,27.5592963 C55.1201875,30.2323739 55.4439375,32.477864 55.4439375,33.5498932 C55.4439375,36.7292553 54.096875,39.6270568 50.952125,43.1797929 C50.3295625,47.9518966 46.032875,51.6261759 40.9675,51.6261759 C40.2189375,51.6261759 39.4760625,51.5474789 38.7533125,51.3918335 C35.2016875,52.7078236 31.5126875,53.375 27.78125,53.375 C20.7834375,53.375 13.986875,50.9970365 8.6436875,46.6791899 C3.681125,42.6691363 0.7175,37.4899938 0.7175,32.8263172 C0.7175,30.6424732 1.62575,28.742813 3.047625,27.0630675 C3.605875,26.141 4.3150625,25.2552206 5.1498125,24.4122874 C2.366875,23.0683161 0.4375,20.2269142 0.4375,16.9365017 C0.4375,12.3558943 4.1663125,8.62958743 8.75,8.62958743 C10.3044375,8.62958743 11.81075,9.06110977 13.11275,9.86469443 C15.4363125,7.54750254 18.6405625,6.11259239 22.1746875,6.11259239 C22.8606875,6.11259239 23.547125,6.16680594 24.2213125,6.27479583 C24.3044375,4.66981254 25.375,3.32496683 26.833625,2.82567756 C26.833625,2.82567756 27.232625,2.625 28.0809375,2.625 C28.9296875,2.625 29.3286875,2.82567756 29.3286875,2.82567756 C30.7873125,3.32496683 31.8574375,4.66981254 31.9405625,6.27479583 C32.61475,6.16680594 33.301625,6.11259239 33.9871875,6.11259239 C37.5773125,6.11259239 40.8244375,7.5955952 43.155,9.97836799 C44.50425,9.09739787 46.06,8.62958743 47.6875,8.62958743 C52.27075,8.62958743 56,12.3558943 56,16.9365017 C56,20.3012393 53.9835625,23.1990407 51.09825,24.5032263 Z M48.7186875,41.7405107 C51.592625,38.5655206 52.8189375,36.1158553 52.8189375,33.5498932 C52.8189375,29.8668697 50.3505625,27.2362011 44.3541875,23.6860882 C44.323125,23.6681628 44.293375,23.6511118 44.2623125,23.6336235 L43.0885,22.9664471 L43.2543125,22.0942211 C43.30025,21.852009 43.3825,21.5044302 43.4748125,21.1144424 C43.5710625,20.7074036 43.707125,20.1342266 43.7985625,19.6541743 C43.8589375,19.3271442 43.896125,19.0521417 43.897,18.847092 C43.8755625,13.5192995 41.3805,11.7171363 34.0493125,11.7171363 C33.317375,11.7171363 32.585,11.7879637 31.8740625,11.9278696 L31.311875,12.0380455 C30.774625,12.7039103 30.0934375,13.4314211 29.2525625,13.7977998 L28.574,13.944701 L28.1430625,14.0387003 L28.01925,14.0387003 L27.32975,13.9311476 L26.9093125,13.7977998 C26.068875,13.4314211 25.3868125,12.7039103 24.85,12.0380455 L24.2878125,11.9278696 C23.576875,11.7879637 22.8445,11.7171363 22.113,11.7171363 C14.76125,11.7171363 12.2723125,13.5284808 12.2644375,18.8903754 C12.266625,19.2996003 12.504625,20.3427738 12.6608125,21.0038293 C12.662125,21.0086386 12.6634375,21.0130106 12.6643125,21.0178199 C12.7386875,21.3308594 12.814375,21.648271 12.865125,21.8878599 C12.868625,21.9014133 12.870375,21.9123434 12.873,21.9254596 C12.8821875,21.9678686 12.8918125,22.0137752 12.8988125,22.0496261 L12.903625,22.0754213 C12.9049375,22.0815422 12.9066875,22.0885374 12.9075625,22.0942211 L13.073375,22.9664471 L12.30075,23.4045276 C9.5165,24.9810925 6.1140625,27.1124718 4.50275,29.6224715 L4.4235625,29.5804998 C3.7454375,30.5935061 3.3425,31.6729677 3.3425,32.8263172 C3.3425,36.7060834 5.9416875,41.1223014 10.294375,44.6396238 C15.1720625,48.581036 21.382375,50.7517639 27.78125,50.7517639 C31.3228125,50.7517639 34.8263125,50.0946433 38.192875,48.7992018 L38.586625,48.6474913 L38.994375,48.7537324 C39.6326875,48.9189963 40.296375,49.0029398 40.9675,49.0029398 C44.834125,49.0029398 48.0913125,46.153231 48.3835625,42.515677 L48.4194375,42.0710384 L48.7186875,41.7405107 Z M28.65625,32.8125 C23.9815625,32.8125 19.25,31.234875 19.25,28.21875 C19.25,25.202625 23.9815625,23.625 28.65625,23.625 C33.3309375,23.625 38.0625,25.202625 38.0625,28.21875 C38.0625,31.234875 33.3309375,32.8125 28.65625,32.8125 Z M25.375,20.125 C25.375,22.0579077 23.8082478,23.625 21.8752191,23.625 C19.9421903,23.625 18.375,22.0579077 18.375,20.125 C18.375,18.1920923 19.9421903,16.625 21.8752191,16.625 C23.8082478,16.625 25.375,18.1920923 25.375,20.125 Z M38.5,20.125 C38.5,22.0579077 36.9332478,23.625 35.0002191,23.625 C33.0671903,23.625 31.5,22.0579077 31.5,20.125 C31.5,18.1920923 33.0671903,16.625 35.0002191,16.625 C36.9332478,16.625 38.5,18.1920923 38.5,20.125 Z M3.9375,16.9365017 C3.9375,19.4967802 5.9513125,21.5896854 8.477875,21.7317773 C8.8151875,21.5136115 9.1625625,21.300255 9.5213125,21.0921449 C9.4014375,20.3843084 9.3410625,19.6611696 9.3410625,18.9375937 C9.3410625,16.6649968 9.9378125,14.530557 10.9795,12.6776779 C10.297,12.3204806 9.534875,12.1272356 8.75,12.1272356 C6.096125,12.1272356 3.9375,14.2844101 3.9375,16.9365017 Z M47.6875,12.1272356 C46.8164375,12.1272356 45.9816875,12.3580803 45.2440625,12.7948492 C46.1750625,14.4929573 46.7359375,16.4214731 46.8094375,18.4732809 L46.8125,18.4728437 C46.8125,18.5537268 46.8138125,18.6350471 46.8155625,18.7185535 C46.8164375,18.7915669 46.8208125,18.8641431 46.8208125,18.9375937 L46.8208125,18.9493982 C46.832625,19.5015894 46.8365625,20.1482171 46.6405625,21.0921449 C47.0063125,21.3037526 47.3580625,21.5223557 47.7010625,21.7448935 C50.348375,21.737461 52.5,19.5837842 52.5,16.9365017 C52.5,14.2844101 50.3409375,12.1272356 47.6875,12.1272356 Z M50.75,33.25 L50.75,35.4263076 L47.0133321,35.4263076 C46.6889778,39.8994901 44.4822253,43.2705905 40.8382929,44.7652786 C39.6331714,45.2597356 38.3612452,45.5 37.1627162,45.5 C35.4077745,45.5 33.8110544,44.9846504 32.8125,43.995301 L34.3665882,42.4566515 C35.261859,43.3432792 37.6699045,43.7097694 39.9975207,42.7543704 C41.6834602,42.0631751 44.4250897,40.2050437 44.8122933,35.4263076 L40.599642,35.4263076 L40.599642,33.25 L50.75,33.25 Z" id="path-5"></path>
        <path d="M38.9375,18.375 C48.3459375,18.375 56,26.0290625 56,35.4375 C56,44.8459375 48.3459375,52.5 38.9375,52.5 C29.5290625,52.5 21.875,44.8459375 21.875,35.4375 C21.875,35.2174375 21.8806875,34.999125 21.8885625,34.78125 L17.4671875,34.7725 C17.133375,39.2949375 13.356,42.875 8.75,42.875 C3.92525,42.875 0,38.94975 0,34.125 C0,29.30025 3.92525,25.375 8.75,25.375 C13.20375,25.375 16.883125,28.721875 17.4243125,33.0316875 L22.04825,33.03125 C22.467375,30.08075 23.6429375,27.370875 25.3736875,25.1055 L17.1180625,18.74775 C15.4905625,20.4063125 13.2260625,21.4375 10.71875,21.4375 C5.765375,21.4375 1.75,17.422125 1.75,12.46875 C1.75,7.515375 5.765375,3.5 10.71875,3.5 C15.672125,3.5 19.6875,7.515375 19.6875,12.46875 C19.6875,14.2848125 19.1436875,15.97225 18.21575,17.3845 L26.5041875,23.7671875 C28.7336875,21.394625 31.6334375,19.6581875 34.8971875,18.862375 L33.8533125,13.99125 C33.79775,13.9934375 33.7435,14 33.6875,14 C30.7881875,14 28.4375,11.6493125 28.4375,8.75 C28.4375,5.8506875 30.7881875,3.5 33.6875,3.5 C36.5868125,3.5 38.9375,5.8506875 38.9375,8.75 C38.9375,10.9851875 37.5379375,12.889625 35.5691875,13.6465 L36.617,18.536875 C37.3765,18.4331875 38.15,18.375 38.9375,18.375 Z M10.71875,20.125 C14.9401875,20.125 18.375,16.6901875 18.375,12.46875 C18.375,8.2473125 14.9401875,4.8125 10.71875,4.8125 C6.4973125,4.8125 3.0625,8.2473125 3.0625,12.46875 C3.0625,16.6901875 6.4973125,20.125 10.71875,20.125 Z M10.71875,6.5625 C13.98075,6.5625 16.625,9.20675 16.625,12.46875 C16.625,15.73075 13.98075,18.375 10.71875,18.375 C7.45675,18.375 4.8125,15.73075 4.8125,12.46875 C4.8125,9.20675 7.45675,6.5625 10.71875,6.5625 Z M8.75,39.375 C11.6449375,39.375 14,37.0199375 14,34.125 C14,31.2300625 11.6449375,28.875 8.75,28.875 C5.8550625,28.875 3.5,31.2300625 3.5,34.125 C3.5,37.0199375 5.8550625,39.375 8.75,39.375 Z M39.9936687,34.0275688 C40.2929187,33.9715688 40.5475437,33.8731313 40.7566687,33.7331313 C40.9657937,33.5931313 41.1250437,33.3997563 41.2348562,33.1547563 C41.3446687,32.9088813 41.3993562,32.6004438 41.3993562,32.2290063 C41.3993562,31.8641313 41.3560437,31.5605063 41.2694187,31.3190063 C41.1832312,31.0770688 41.0506687,30.8823813 40.8712937,30.7349438 C40.6919187,30.5879438 40.4639812,30.4820688 40.1883562,30.4195063 C39.9122937,30.3560688 39.5850437,30.3245688 39.2066062,30.3245688 L37.2330437,30.3245688 L37.2330437,34.1115688 L38.9869812,34.1115688 C39.3597312,34.1115688 39.6948562,34.0840063 39.9936687,34.0275688 Z M41.3147,36.8640563 C41.14495,36.7109313 40.92095,36.5932438 40.641825,36.5092438 C40.3627,36.4261188 40.01095,36.3841188 39.5852625,36.3841188 L37.2332625,36.3841188 L37.2332625,40.1719938 L39.6053875,40.1719938 C40.050325,40.1719938 40.4138875,40.1124938 40.69695,39.9939313 C40.9787,39.8762438 41.200075,39.7231188 41.359325,39.5349938 C41.5190125,39.3473063 41.6283875,39.1351188 41.688325,38.8984313 C41.747825,38.6621813 41.7780125,38.4224313 41.7780125,38.1787438 C41.7780125,37.9004938 41.7430125,37.6502438 41.67345,37.4275563 C41.60345,37.2048688 41.4840125,37.0176188 41.3147,36.8640563 Z M38.9375,22.749825 C45.9445,22.749825 51.625,28.430325 51.625,35.437325 C51.625,42.4447625 45.9445,48.124825 38.9375,48.124825 C31.9305,48.124825 26.25,42.4447625 26.25,35.437325 C26.25,28.430325 31.9305,22.749825 38.9375,22.749825 Z M45.1906875,40.0568875 C45.4400625,39.5021375 45.5651875,38.9027625 45.5651875,38.258325 C45.5651875,37.4056375 45.325875,36.7073875 44.84725,36.1631375 C44.3681875,35.6188875 43.6296875,35.225575 42.63,34.9827625 C43.0880625,34.8165125 43.4800625,34.6205125 43.8064375,34.3956375 C44.132375,34.170325 44.39925,33.9192 44.6079375,33.641825 C44.8161875,33.36445 44.9684375,33.067825 45.066,32.752825 C45.163125,32.4373875 45.21125,32.1097 45.21125,31.7702 C45.21125,31.146325 45.1058125,30.5815125 44.8940625,30.075325 C44.6823125,29.5691375 44.3436875,29.1395125 43.8790625,28.7860125 C43.414,28.4325125 42.8141875,28.159075 42.07875,27.9643875 C41.4404375,27.7963875 40.6853125,27.7010125 39.8125,27.6787 L39.8125,26.249825 L38.5,26.249825 L38.5,27.67345 L36.75,27.67345 L36.75,26.249825 L35.4375,26.249825 L35.4375,27.67345 L33.824875,27.67345 L33.824875,42.8227625 L35.4375,42.8227625 L35.4375,44.624825 L36.75,44.624825 L36.75,42.8227625 L38.5,42.8227625 L38.5,44.624825 L39.8125,44.624825 L39.8125,42.8227625 L39.8825,42.8227625 C40.7911875,42.8227625 41.5996875,42.706825 42.3075625,42.474075 C43.015,42.2422 43.6104375,41.9202 44.0925625,41.5072 C44.5746875,41.095075 44.940875,40.6116375 45.1906875,40.0568875 Z M38.9375,49.875 C30.97675,49.875 24.5,43.39825 24.5,35.4375 C24.5,27.47675 30.97675,21 38.9375,21 C46.89825,21 53.375,27.47675 53.375,35.4375 C53.375,43.39825 46.89825,49.875 38.9375,49.875 Z M33.6875,12.25 C31.7576875,12.25 30.1875,10.6798125 30.1875,8.75 C30.1875,6.8201875 31.7576875,5.25 33.6875,5.25 C35.6173125,5.25 37.1875,6.8201875 37.1875,8.75 C37.1875,10.6798125 35.6173125,12.25 33.6875,12.25 Z" id="path-7"></path>
        <path d="M38.9375,18.375 C48.3459375,18.375 56,26.0290625 56,35.4375 C56,44.8459375 48.3459375,52.5 38.9375,52.5 C29.5290625,52.5 21.875,44.8459375 21.875,35.4375 C21.875,35.2174375 21.8806875,34.999125 21.8885625,34.78125 L17.4671875,34.7725 C17.133375,39.2949375 13.356,42.875 8.75,42.875 C3.92525,42.875 0,38.94975 0,34.125 C0,29.30025 3.92525,25.375 8.75,25.375 C13.20375,25.375 16.883125,28.721875 17.4243125,33.0316875 L22.04825,33.03125 C22.467375,30.08075 23.6429375,27.370875 25.3736875,25.1055 L17.1180625,18.74775 C15.4905625,20.4063125 13.2260625,21.4375 10.71875,21.4375 C5.765375,21.4375 1.75,17.422125 1.75,12.46875 C1.75,7.515375 5.765375,3.5 10.71875,3.5 C15.672125,3.5 19.6875,7.515375 19.6875,12.46875 C19.6875,14.2848125 19.1436875,15.97225 18.21575,17.3845 L26.5041875,23.7671875 C28.7336875,21.394625 31.6334375,19.6581875 34.8971875,18.862375 L33.8533125,13.99125 C33.79775,13.9934375 33.7435,14 33.6875,14 C30.7881875,14 28.4375,11.6493125 28.4375,8.75 C28.4375,5.8506875 30.7881875,3.5 33.6875,3.5 C36.5868125,3.5 38.9375,5.8506875 38.9375,8.75 C38.9375,10.9851875 37.5379375,12.889625 35.5691875,13.6465 L36.617,18.536875 C37.3765,18.4331875 38.15,18.375 38.9375,18.375 Z M10.71875,20.125 C14.9401875,20.125 18.375,16.6901875 18.375,12.46875 C18.375,8.2473125 14.9401875,4.8125 10.71875,4.8125 C6.4973125,4.8125 3.0625,8.2473125 3.0625,12.46875 C3.0625,16.6901875 6.4973125,20.125 10.71875,20.125 Z M10.71875,6.5625 C13.98075,6.5625 16.625,9.20675 16.625,12.46875 C16.625,15.73075 13.98075,18.375 10.71875,18.375 C7.45675,18.375 4.8125,15.73075 4.8125,12.46875 C4.8125,9.20675 7.45675,6.5625 10.71875,6.5625 Z M8.75,39.375 C11.6449375,39.375 14,37.0199375 14,34.125 C14,31.2300625 11.6449375,28.875 8.75,28.875 C5.8550625,28.875 3.5,31.2300625 3.5,34.125 C3.5,37.0199375 5.8550625,39.375 8.75,39.375 Z M39.9936687,34.0275688 C40.2929187,33.9715688 40.5475437,33.8731313 40.7566687,33.7331313 C40.9657937,33.5931313 41.1250437,33.3997563 41.2348562,33.1547563 C41.3446687,32.9088813 41.3993562,32.6004438 41.3993562,32.2290063 C41.3993562,31.8641313 41.3560437,31.5605063 41.2694187,31.3190063 C41.1832312,31.0770688 41.0506687,30.8823813 40.8712937,30.7349438 C40.6919187,30.5879438 40.4639812,30.4820688 40.1883562,30.4195063 C39.9122937,30.3560688 39.5850437,30.3245688 39.2066062,30.3245688 L37.2330437,30.3245688 L37.2330437,34.1115688 L38.9869812,34.1115688 C39.3597312,34.1115688 39.6948562,34.0840063 39.9936687,34.0275688 Z M41.3147,36.8640563 C41.14495,36.7109313 40.92095,36.5932438 40.641825,36.5092438 C40.3627,36.4261188 40.01095,36.3841188 39.5852625,36.3841188 L37.2332625,36.3841188 L37.2332625,40.1719938 L39.6053875,40.1719938 C40.050325,40.1719938 40.4138875,40.1124938 40.69695,39.9939313 C40.9787,39.8762438 41.200075,39.7231188 41.359325,39.5349938 C41.5190125,39.3473063 41.6283875,39.1351188 41.688325,38.8984313 C41.747825,38.6621813 41.7780125,38.4224313 41.7780125,38.1787438 C41.7780125,37.9004938 41.7430125,37.6502438 41.67345,37.4275563 C41.60345,37.2048688 41.4840125,37.0176188 41.3147,36.8640563 Z M38.9375,22.749825 C45.9445,22.749825 51.625,28.430325 51.625,35.437325 C51.625,42.4447625 45.9445,48.124825 38.9375,48.124825 C31.9305,48.124825 26.25,42.4447625 26.25,35.437325 C26.25,28.430325 31.9305,22.749825 38.9375,22.749825 Z M45.1906875,40.0568875 C45.4400625,39.5021375 45.5651875,38.9027625 45.5651875,38.258325 C45.5651875,37.4056375 45.325875,36.7073875 44.84725,36.1631375 C44.3681875,35.6188875 43.6296875,35.225575 42.63,34.9827625 C43.0880625,34.8165125 43.4800625,34.6205125 43.8064375,34.3956375 C44.132375,34.170325 44.39925,33.9192 44.6079375,33.641825 C44.8161875,33.36445 44.9684375,33.067825 45.066,32.752825 C45.163125,32.4373875 45.21125,32.1097 45.21125,31.7702 C45.21125,31.146325 45.1058125,30.5815125 44.8940625,30.075325 C44.6823125,29.5691375 44.3436875,29.1395125 43.8790625,28.7860125 C43.414,28.4325125 42.8141875,28.159075 42.07875,27.9643875 C41.4404375,27.7963875 40.6853125,27.7010125 39.8125,27.6787 L39.8125,26.249825 L38.5,26.249825 L38.5,27.67345 L36.75,27.67345 L36.75,26.249825 L35.4375,26.249825 L35.4375,27.67345 L33.824875,27.67345 L33.824875,42.8227625 L35.4375,42.8227625 L35.4375,44.624825 L36.75,44.624825 L36.75,42.8227625 L38.5,42.8227625 L38.5,44.624825 L39.8125,44.624825 L39.8125,42.8227625 L39.8825,42.8227625 C40.7911875,42.8227625 41.5996875,42.706825 42.3075625,42.474075 C43.015,42.2422 43.6104375,41.9202 44.0925625,41.5072 C44.5746875,41.095075 44.940875,40.6116375 45.1906875,40.0568875 Z M38.9375,49.875 C30.97675,49.875 24.5,43.39825 24.5,35.4375 C24.5,27.47675 30.97675,21 38.9375,21 C46.89825,21 53.375,27.47675 53.375,35.4375 C53.375,43.39825 46.89825,49.875 38.9375,49.875 Z M33.6875,12.25 C31.7576875,12.25 30.1875,10.6798125 30.1875,8.75 C30.1875,6.8201875 31.7576875,5.25 33.6875,5.25 C35.6173125,5.25 37.1875,6.8201875 37.1875,8.75 C37.1875,10.6798125 35.6173125,12.25 33.6875,12.25 Z" id="path-9"></path>
        <path d="M46.5154871,7.43319617 L28.0024409,33.9009319 C27.6408546,32.5996037 26.8477115,31.4736133 25.7286192,30.6895968 L25.2709865,30.3685068 C24.447856,29.7911539 23.5056455,29.4409135 22.5173675,29.3408448 L40.6944687,3.35300376 C41.0195488,2.88790185 41.5536709,2.61031998 42.1225609,2.61031998 C42.4780628,2.61031998 42.821396,2.71952539 43.1156195,2.92575392 L46.0882764,5.00935826 C46.8735967,5.5597361 47.0652548,6.64700427 46.5154871,7.43319617 M25.0267419,37.3345935 C24.7442525,37.7379138 24.3870122,38.0572635 23.986312,38.2865514 C23.0180255,36.2729951 21.0566804,34.8285252 18.738095,34.5887954 C18.8180612,34.1393564 18.9945084,33.6999243 19.2730863,33.3013898 C20.297436,31.8377764 22.313106,31.4814448 23.7750969,32.5069314 L24.2327296,32.8275863 C25.695155,33.8526378 26.050657,35.8705449 25.0267419,37.3345935 M21.2331276,43.5249302 L21.04625,43.7746669 L20.9223893,44.0618205 C20.7046553,44.5695604 20.2374614,45.1142822 19.5716558,45.6381201 C16.1422354,48.3343189 13.6372071,50.0924824 11.825364,51.2397918 C12.8827433,49.2719191 13.937515,46.8624388 14.4885864,44.0513786 L14.6354809,43.3034738 L14.3564683,42.5938562 C14.1752406,42.1317999 14.0831056,41.6427685 14.0831056,41.1402496 C14.0831056,38.9478749 15.8649613,37.1640416 18.0549054,37.1640416 C18.1461712,37.1640416 18.2370024,37.1670872 18.3265298,37.1731783 L18.470382,37.1853606 C19.8285038,37.3258919 21.041904,38.1816968 21.63687,39.4195031 L21.7876759,39.7767048 C21.9463045,40.2104809 22.0262707,40.6694916 22.0262707,41.1402496 C22.0262707,42.0091069 21.7524733,42.833586 21.2331276,43.5249302 M47.5837314,2.87093368 L44.6110745,0.787329342 C42.6453834,-0.591008211 39.9347898,-0.112853864 38.5584149,1.85588901 L18.8093692,30.09136 C17.8545553,31.4570802 17.7915385,33.1808723 18.4995002,34.5683466 C18.3526057,34.5587748 18.2039729,34.5535538 18.0549054,34.5535538 C14.420789,34.5535538 11.4755119,37.5025349 11.4755119,41.1402496 C11.4755119,41.9903985 11.6367481,42.8026952 11.9296678,43.5488597 C10.584584,50.4092216 5.70751456,54.8875134 6.69318499,55.7594163 C7.83400724,56.7683698 12.2647436,54.7021687 21.1822795,47.6908336 C22.2566081,46.8467759 22.9424053,45.9683468 23.3183334,45.0929632 C24.1440714,43.9917724 24.6338644,42.6234417 24.6338644,41.1402496 C24.6338644,40.3457911 24.4939235,39.5843989 24.2362064,38.8795672 C25.9459186,39.3298763 27.8290359,38.7007488 28.9020607,37.1666521 L48.651541,8.93031092 C50.0279159,6.96200313 49.5502916,4.24927123 47.5837314,2.87093368" id="path-11"></path>
        <path d="M46.5154871,7.43319617 L28.0024409,33.9009319 C27.6408546,32.5996037 26.8477115,31.4736133 25.7286192,30.6895968 L25.2709865,30.3685068 C24.447856,29.7911539 23.5056455,29.4409135 22.5173675,29.3408448 L40.6944687,3.35300376 C41.0195488,2.88790185 41.5536709,2.61031998 42.1225609,2.61031998 C42.4780628,2.61031998 42.821396,2.71952539 43.1156195,2.92575392 L46.0882764,5.00935826 C46.8735967,5.5597361 47.0652548,6.64700427 46.5154871,7.43319617 M25.0267419,37.3345935 C24.7442525,37.7379138 24.3870122,38.0572635 23.986312,38.2865514 C23.0180255,36.2729951 21.0566804,34.8285252 18.738095,34.5887954 C18.8180612,34.1393564 18.9945084,33.6999243 19.2730863,33.3013898 C20.297436,31.8377764 22.313106,31.4814448 23.7750969,32.5069314 L24.2327296,32.8275863 C25.695155,33.8526378 26.050657,35.8705449 25.0267419,37.3345935 M21.2331276,43.5249302 L21.04625,43.7746669 L20.9223893,44.0618205 C20.7046553,44.5695604 20.2374614,45.1142822 19.5716558,45.6381201 C16.1422354,48.3343189 13.6372071,50.0924824 11.825364,51.2397918 C12.8827433,49.2719191 13.937515,46.8624388 14.4885864,44.0513786 L14.6354809,43.3034738 L14.3564683,42.5938562 C14.1752406,42.1317999 14.0831056,41.6427685 14.0831056,41.1402496 C14.0831056,38.9478749 15.8649613,37.1640416 18.0549054,37.1640416 C18.1461712,37.1640416 18.2370024,37.1670872 18.3265298,37.1731783 L18.470382,37.1853606 C19.8285038,37.3258919 21.041904,38.1816968 21.63687,39.4195031 L21.7876759,39.7767048 C21.9463045,40.2104809 22.0262707,40.6694916 22.0262707,41.1402496 C22.0262707,42.0091069 21.7524733,42.833586 21.2331276,43.5249302 M47.5837314,2.87093368 L44.6110745,0.787329342 C42.6453834,-0.591008211 39.9347898,-0.112853864 38.5584149,1.85588901 L18.8093692,30.09136 C17.8545553,31.4570802 17.7915385,33.1808723 18.4995002,34.5683466 C18.3526057,34.5587748 18.2039729,34.5535538 18.0549054,34.5535538 C14.420789,34.5535538 11.4755119,37.5025349 11.4755119,41.1402496 C11.4755119,41.9903985 11.6367481,42.8026952 11.9296678,43.5488597 C10.584584,50.4092216 5.70751456,54.8875134 6.69318499,55.7594163 C7.83400724,56.7683698 12.2647436,54.7021687 21.1822795,47.6908336 C22.2566081,46.8467759 22.9424053,45.9683468 23.3183334,45.0929632 C24.1440714,43.9917724 24.6338644,42.6234417 24.6338644,41.1402496 C24.6338644,40.3457911 24.4939235,39.5843989 24.2362064,38.8795672 C25.9459186,39.3298763 27.8290359,38.7007488 28.9020607,37.1666521 L48.651541,8.93031092 C50.0279159,6.96200313 49.5502916,4.24927123 47.5837314,2.87093368" id="path-13"></path>
        <path d="M51.94,52.9375 L4.06,52.9375 C3.50987875,52.9375 3.0625,52.4905209 3.0625,51.9408911 L3.0625,14.4375 C3.38219875,14.5197202 3.71536375,14.5680558 4.06,14.5680558 L51.94,14.5680558 C52.2846363,14.5680558 52.6178012,14.5197202 52.9375,14.4375 L52.9375,51.9408911 C52.9375,52.4905209 52.4901213,52.9375 51.94,52.9375 Z M3.0625,4.04044118 C3.0625,3.50110662 3.50987875,3.0625 4.06,3.0625 L51.94,3.0625 C52.4901213,3.0625 52.9375,3.50110662 52.9375,4.04044118 L52.9375,10.3970588 C52.9375,10.9363934 52.4901213,11.375 51.94,11.375 L4.06,11.375 C3.50987875,11.375 3.0625,10.9363934 3.0625,10.3970588 L3.0625,4.04044118 Z M52,0 C54.209,0 56,1.791 56,4 L56,10.5 L56,52 C56,54.209 54.209,56 52,56 L4,56 C1.791,56 0,54.209 0,52 L0,10.5 L0,4 C0,1.791 1.791,0 4,0 L52,0 Z M10.9375,33.1740702 L10.9375,34.6506327 L20.5625,39.8125 L20.5625,37.1888559 C20.5625,37.0017433 20.5154618,36.8309013 20.4203952,36.6763301 C20.3253286,36.5217588 20.1748064,36.3875258 19.9688288,36.2736312 L16.5939638,34.3943698 C16.3879861,34.2804752 16.1701251,34.1889527 15.9403808,34.1198024 C15.7111316,34.0506521 15.4690088,33.9835356 15.215993,33.918453 C15.4690088,33.8533704 15.7111316,33.7821862 15.9403808,33.7049006 C16.1701251,33.6276149 16.3879861,33.5320248 16.5939638,33.4176217 L19.9688288,31.5510718 C20.1748064,31.4371772 20.3253286,31.3004019 20.4203952,31.1422714 C20.5154618,30.9836325 20.5625,30.8107567 20.5625,30.6236441 L20.5625,28 L10.9375,33.1740702 Z M26.643224,41.9736842 L33.25,24.0625 L31.6982305,24.0625 C31.2750207,24.0625 30.9027528,24.1710526 30.5814268,24.3881579 C30.2601008,24.6052632 30.0210656,24.9188596 29.8638314,25.3284448 L23.1875,43.3125 L24.7387796,43.3125 C24.9263831,43.3125 25.1169255,43.2843567 25.3094272,43.2280702 C25.5009492,43.1717836 25.6812053,43.0873538 25.8497055,42.9747807 C26.0182057,42.8622076 26.1710315,42.7214912 26.3081828,42.5526316 C26.4453342,42.3837719 26.5565247,42.1907895 26.643224,41.9736842 Z M45.0625,34.6506327 L45.0625,33.1740702 L35.4375,28 L35.4375,30.6236441 C35.4375,30.8107567 35.4850284,30.9836325 35.5800853,31.1422714 C35.6751421,31.3004019 35.8256488,31.4371772 36.0316052,31.5510718 L39.406123,33.4176217 C39.6041581,33.5320248 39.8200163,33.6276149 40.0532026,33.7049006 C40.2873791,33.7821862 40.5309623,33.8533704 40.7844472,33.918453 C40.5309623,33.9835356 40.2873791,34.0506521 40.0532026,34.1198024 C39.8200163,34.1889527 39.6041581,34.2804752 39.406123,34.3943698 L36.0316052,36.2736312 C35.8256488,36.3875258 35.6751421,36.5217588 35.5800853,36.6763301 C35.4850284,36.8309013 35.4375,37.0017433 35.4375,37.1888559 L35.4375,39.8125 L45.0625,34.6506327 Z M8.75,6.78125 C8.75,5.69400781 7.86849219,4.8125 6.78125,4.8125 C5.69400781,4.8125 4.8125,5.69400781 4.8125,6.78125 C4.8125,7.86849219 5.69400781,8.75 6.78125,8.75 C7.86849219,8.75 8.75,7.86849219 8.75,6.78125 Z M14.875,6.78125 C14.875,5.69400781 13.9934922,4.8125 12.90625,4.8125 C11.8190078,4.8125 10.9375,5.69400781 10.9375,6.78125 C10.9375,7.86849219 11.8190078,8.75 12.90625,8.75 C13.9934922,8.75 14.875,7.86849219 14.875,6.78125 Z M21,6.78125 C21,5.69400781 20.1184922,4.8125 19.03125,4.8125 C17.9440078,4.8125 17.0625,5.69400781 17.0625,6.78125 C17.0625,7.86849219 17.9440078,8.75 19.03125,8.75 C20.1184922,8.75 21,7.86849219 21,6.78125 Z" id="path-15"></path>
        <path d="M51.94,52.9375 L4.06,52.9375 C3.50987875,52.9375 3.0625,52.4905209 3.0625,51.9408911 L3.0625,14.4375 C3.38219875,14.5197202 3.71536375,14.5680558 4.06,14.5680558 L51.94,14.5680558 C52.2846363,14.5680558 52.6178012,14.5197202 52.9375,14.4375 L52.9375,51.9408911 C52.9375,52.4905209 52.4901213,52.9375 51.94,52.9375 Z M3.0625,4.04044118 C3.0625,3.50110662 3.50987875,3.0625 4.06,3.0625 L51.94,3.0625 C52.4901213,3.0625 52.9375,3.50110662 52.9375,4.04044118 L52.9375,10.3970588 C52.9375,10.9363934 52.4901213,11.375 51.94,11.375 L4.06,11.375 C3.50987875,11.375 3.0625,10.9363934 3.0625,10.3970588 L3.0625,4.04044118 Z M52,0 C54.209,0 56,1.791 56,4 L56,10.5 L56,52 C56,54.209 54.209,56 52,56 L4,56 C1.791,56 0,54.209 0,52 L0,10.5 L0,4 C0,1.791 1.791,0 4,0 L52,0 Z M10.9375,33.1740702 L10.9375,34.6506327 L20.5625,39.8125 L20.5625,37.1888559 C20.5625,37.0017433 20.5154618,36.8309013 20.4203952,36.6763301 C20.3253286,36.5217588 20.1748064,36.3875258 19.9688288,36.2736312 L16.5939638,34.3943698 C16.3879861,34.2804752 16.1701251,34.1889527 15.9403808,34.1198024 C15.7111316,34.0506521 15.4690088,33.9835356 15.215993,33.918453 C15.4690088,33.8533704 15.7111316,33.7821862 15.9403808,33.7049006 C16.1701251,33.6276149 16.3879861,33.5320248 16.5939638,33.4176217 L19.9688288,31.5510718 C20.1748064,31.4371772 20.3253286,31.3004019 20.4203952,31.1422714 C20.5154618,30.9836325 20.5625,30.8107567 20.5625,30.6236441 L20.5625,28 L10.9375,33.1740702 Z M26.643224,41.9736842 L33.25,24.0625 L31.6982305,24.0625 C31.2750207,24.0625 30.9027528,24.1710526 30.5814268,24.3881579 C30.2601008,24.6052632 30.0210656,24.9188596 29.8638314,25.3284448 L23.1875,43.3125 L24.7387796,43.3125 C24.9263831,43.3125 25.1169255,43.2843567 25.3094272,43.2280702 C25.5009492,43.1717836 25.6812053,43.0873538 25.8497055,42.9747807 C26.0182057,42.8622076 26.1710315,42.7214912 26.3081828,42.5526316 C26.4453342,42.3837719 26.5565247,42.1907895 26.643224,41.9736842 Z M45.0625,34.6506327 L45.0625,33.1740702 L35.4375,28 L35.4375,30.6236441 C35.4375,30.8107567 35.4850284,30.9836325 35.5800853,31.1422714 C35.6751421,31.3004019 35.8256488,31.4371772 36.0316052,31.5510718 L39.406123,33.4176217 C39.6041581,33.5320248 39.8200163,33.6276149 40.0532026,33.7049006 C40.2873791,33.7821862 40.5309623,33.8533704 40.7844472,33.918453 C40.5309623,33.9835356 40.2873791,34.0506521 40.0532026,34.1198024 C39.8200163,34.1889527 39.6041581,34.2804752 39.406123,34.3943698 L36.0316052,36.2736312 C35.8256488,36.3875258 35.6751421,36.5217588 35.5800853,36.6763301 C35.4850284,36.8309013 35.4375,37.0017433 35.4375,37.1888559 L35.4375,39.8125 L45.0625,34.6506327 Z M8.75,6.78125 C8.75,5.69400781 7.86849219,4.8125 6.78125,4.8125 C5.69400781,4.8125 4.8125,5.69400781 4.8125,6.78125 C4.8125,7.86849219 5.69400781,8.75 6.78125,8.75 C7.86849219,8.75 8.75,7.86849219 8.75,6.78125 Z M14.875,6.78125 C14.875,5.69400781 13.9934922,4.8125 12.90625,4.8125 C11.8190078,4.8125 10.9375,5.69400781 10.9375,6.78125 C10.9375,7.86849219 11.8190078,8.75 12.90625,8.75 C13.9934922,8.75 14.875,7.86849219 14.875,6.78125 Z M21,6.78125 C21,5.69400781 20.1184922,4.8125 19.03125,4.8125 C17.9440078,4.8125 17.0625,5.69400781 17.0625,6.78125 C17.0625,7.86849219 17.9440078,8.75 19.03125,8.75 C20.1184922,8.75 21,7.86849219 21,6.78125 Z" id="path-17"></path>
        <path d="M42.1920881,41.2820444 L10.2225422,41.2820444 C7.09221576,41.2820444 4.54570698,39.003542 4.54570698,36.2027708 C4.54570698,33.549896 6.85946551,31.3245766 9.81291375,31.1366435 L11.6647572,31.0183263 L11.4830984,29.1721597 C11.4397752,28.7308604 11.4176654,28.2817929 11.4176654,27.8369083 C11.4176654,20.4232602 17.4491535,14.3917722 24.8628016,14.3917722 C29.8823191,14.3917722 34.4491836,17.1563909 36.7811678,21.606731 L37.5215466,23.0199642 L39.0109689,22.4489941 C40.0274212,22.0587863 41.0976541,21.8612922 42.1920881,21.8612922 C47.2991484,21.8612922 51.454293,26.2172176 51.454293,31.5716683 C51.454293,36.9261191 47.2991484,41.2820444 42.1920881,41.2820444 M43.739645,19.2215237 C42.2491834,19.2215237 40.8206864,19.4982101 39.4995503,20.0048609 C36.6756923,14.6152751 31.027645,10.9375 24.5207101,10.9375 C15.1875976,10.9375 7.62130178,18.5034645 7.62130178,27.8369083 C7.62130178,28.4022101 7.64913609,28.961216 7.70347929,29.5122692 C3.39910059,29.7863047 0,33.0856657 0,37.1150148 C0,41.3239615 3.70892308,44.7363166 8.28402367,44.7363166 L43.739645,44.7363166 C50.5110059,44.7363166 56,39.0246479 56,31.9789201 C56,24.9331923 50.5110059,19.2215237 43.739645,19.2215237" id="path-19"></path>
        <path d="M45.5126304,14.1564337 C45.5126304,15.1904741 44.6138569,16.0316338 43.5086762,16.0316338 L12.4473856,16.0316338 C11.3422048,16.0316338 10.4434313,15.1904741 10.4434313,14.1564337 L10.4434313,12.2802315 L10.4434313,10.2512279 C10.4434313,9.21718749 11.3422048,8.37552671 12.4473856,8.37552671 L12.9483741,8.37552671 C14.6081492,8.37552671 15.9543055,7.02937045 15.9543055,5.36959536 L15.9543055,4.88113152 C15.9543055,3.84709114 16.853079,3.00593135 17.9582597,3.00593135 L38.4987906,3.00593135 C39.6039713,3.00593135 40.5027448,3.84709114 40.5027448,4.88113152 L40.5027448,5.36959536 C40.5027448,7.02937045 41.8489011,8.37552671 43.5086762,8.37552671 C44.6138569,8.37552671 45.5126304,9.21718749 45.5126304,10.2512279 L45.5126304,12.2536791 L45.5126304,14.1564337 Z M41.9260533,22.0434965 L41.676561,24.1446426 L14.4047479,24.1446426 L14.1427309,22.0434965 L14.092632,21.6402008 L13.7735023,19.0806502 L42.2782483,19.0806502 L41.9741482,21.6402008 L41.9260533,22.0434965 Z M23.8258377,40.0405085 C22.2026348,38.5154993 22.2126545,35.1693968 23.9701224,32.1253903 C25.9069442,28.7712719 29.2254924,27.0608969 31.3817471,28.3058535 C31.4909626,28.3689781 31.5916613,28.4426234 31.6908571,28.5182727 C29.3762899,31.2025694 23.9215265,37.0445969 23.8258377,40.0405085 Z M31.779532,36.6342873 C29.9088408,39.8751823 26.7521119,41.5730325 24.5953561,40.5630396 C25.5156721,39.9773839 26.9740498,37.7630145 28.9749981,33.9059036 C30.3877858,31.5983503 31.3987807,29.9070129 32.0215095,28.811852 C33.5480217,30.3774412 33.5019307,33.6519024 31.779532,36.6342873 Z M38.4562066,51.227082 C38.3364703,52.23457 37.4807818,52.9940687 36.46628,52.9940687 L19.7718383,52.9940687 C18.7628473,52.9940687 17.9081609,52.2395799 17.7834147,51.2386047 L17.2789192,47.1906172 L16.9663024,44.6856744 L39.2342418,44.6856744 L38.9361536,47.1906172 L38.4562066,51.227082 Z M43.5086762,5.36959536 L43.5086762,4.88113152 C43.5086762,2.18531209 41.2657504,0 38.4987906,0 L17.9582597,0 C15.1912999,0 12.9483741,2.18531209 12.9483741,4.88113152 L12.9483741,5.36959536 L12.4473856,5.36959536 C9.68042577,5.36959536 7.4375,7.55490745 7.4375,10.2512279 L7.4375,10.7822757 L7.4375,14.1564337 C7.4375,16.2525698 8.79618097,18.0345861 10.7004385,18.7264513 L11.0636552,21.6402008 L11.0987244,21.9227583 L11.4684539,24.8896125 C10.0356267,25.7713524 9.07673456,27.3489654 9.07673456,29.1545281 C9.07673456,29.5868813 9.13284528,30.0167294 9.24306276,30.4345539 L12.0225473,40.9553136 C12.3126197,42.0539815 12.954386,42.9853192 13.8070685,43.6426162 L14.2494414,47.1906172 L14.8005288,51.6103383 C15.1131457,54.117786 17.244351,56 19.7718383,56 L36.46628,56 C39.004288,56 41.1415052,54.1017544 41.4410964,51.5817819 L41.9631265,47.1906172 L42.376943,43.7127546 C43.3052748,43.0319112 44.0001459,42.0364469 44.2862104,40.8546149 L46.8337372,30.3338552 C47.3557673,28.1796044 46.3968752,26.0163358 44.6133559,24.9046422 L44.9695588,21.9062257 L45.0011211,21.6402008 L45.3518131,18.6923841 C47.2054707,17.9764714 48.5185617,16.2175006 48.5185617,14.1564337 L48.5185617,10.6880899 L48.5185617,10.2512279 C48.5185617,7.55490745 46.275636,5.36959536 43.5086762,5.36959536 Z" id="path-21"></path>
        <path d="M53.2231405,40.3119469 C53.2231405,41.3368584 52.3928595,42.170354 51.3719008,42.170354 L4.62809917,42.170354 C3.6071405,42.170354 2.7768595,41.3368584 2.7768595,40.3119469 L2.7768595,6.3960177 C2.7768595,5.37110619 3.6071405,4.53761062 4.62809917,4.53761062 L51.3719008,4.53761062 C52.3928595,4.53761062 53.2231405,5.37110619 53.2231405,6.3960177 L53.2231405,40.3119469 Z M29.9956364,48.4564159 C29.9956364,49.531969 29.1024132,50.4030973 28,50.4030973 C26.8975868,50.4030973 26.0039008,49.531969 26.0039008,48.4564159 L26.0039008,46.9041814 C26.0039008,45.8290929 26.8975868,44.9579646 28,44.9579646 C29.1024132,44.9579646 29.9956364,45.8290929 29.9956364,46.9041814 L29.9956364,48.4564159 Z M51.3719008,1.75 C53.928,1.75 56,3.83048673 56,6.3960177 L56,40.3119469 C56,42.8774779 53.928,44.9579646 51.3719008,44.9579646 L31.8723306,44.9579646 C32.2064793,45.580531 32.3966942,46.2918363 32.3966942,47.0486726 L32.3966942,49.3716814 C32.3966942,49.728031 32.3448595,50.0713717 32.2643306,50.4030973 L49.7520661,50.4030973 L49.7520661,54.1199115 L7.63636364,54.1199115 L7.63636364,50.4030973 L23.7356694,50.4030973 C23.6551405,50.0713717 23.6033058,49.728031 23.6033058,49.3716814 L23.6033058,47.0486726 C23.6033058,46.2918363 23.7935207,45.580531 24.1276694,44.9579646 L4.62809917,44.9579646 C2.072,44.9579646 0,42.8774779 0,40.3119469 L0,6.3960177 C0,3.83048673 2.072,1.75 4.62809917,1.75 L51.3719008,1.75 Z M6.94214876,37.0595951 L13.8842975,37.0595951 L13.8842975,21.263135 L6.94214876,21.263135 L6.94214876,37.0595951 Z M18.5123967,37.0595951 L25.4545455,37.0595951 L25.4545455,25.9091527 L18.5123967,25.9091527 L18.5123967,37.0595951 Z M42.1157025,37.0595951 L49.0578512,37.0595951 L49.0578512,11.041896 L42.1157025,11.041896 L42.1157025,37.0595951 Z M30.5454545,37.0595951 L37.4876033,37.0595951 L37.4876033,16.1525155 L30.5454545,16.1525155 L30.5454545,37.0595951 Z" id="path-23"></path>
        <path d="M48.0269818,51.2357927 L46.2439122,52.4836995 C45.6714912,52.8843459 45.0013279,53.0967658 44.3060034,53.0967658 C43.1989034,53.0967658 42.1605133,52.5562804 41.5266405,51.651923 L31.3440305,37.1101069 C30.8253194,36.3683306 30.625964,35.4697796 30.7832225,34.5789706 C30.9399971,33.6876777 31.4349986,32.9120303 32.176291,32.3928352 L33.9583929,31.1449284 C34.5308139,30.7437982 35.201461,30.5318621 35.8972695,30.5318621 C37.0034017,30.5318621 38.0422756,31.0718637 38.6761484,31.976705 L48.8582745,46.5185211 C49.9295679,48.0485255 49.5560185,50.1644993 48.0269818,51.2357927 M21.5069054,32.2360606 C13.4199467,32.2360606 6.84073417,25.6568481 6.84073417,17.5698893 C6.84073417,9.48293054 13.4199467,2.90323417 21.5069054,2.90323417 C29.5938642,2.90323417 36.1735606,9.48293054 36.1735606,17.5698893 C36.1735606,25.6568481 29.5938642,32.2360606 21.5069054,32.2360606 M51.2360233,44.8535163 L41.0538972,30.3117002 C39.8790551,28.6336309 37.9551786,27.6315312 35.9050114,27.628628 C37.9034043,24.7771681 39.0767948,21.3078033 39.0767948,17.5698893 C39.0767948,7.88179689 31.1949979,0 21.5069054,0 C11.8192969,0 3.9375,7.88179689 3.9375,17.5698893 C3.9375,27.2574979 11.8192969,35.1392948 21.5069054,35.1392948 C23.7820733,35.1392948 25.9580473,34.7047774 27.9549885,33.9141299 C27.9438595,33.9673559 27.9336981,34.0210657 27.9240207,34.0747756 C27.6327295,35.7291352 28.002408,37.3984948 28.9662818,38.7751117 L39.1488917,53.3174116 C40.3251854,54.9969326 42.2529329,56 44.3060034,56 C45.5998781,56 46.8463333,55.6061279 47.908917,54.8619322 L49.6915027,53.6140254 C52.5328013,51.6248261 53.2252226,47.6948148 51.2360233,44.8535163 M21.740519,5.13925674 C28.7237649,5.13925674 34.4044265,10.8204021 34.4044265,17.8031642 C34.4044265,24.7864101 28.7237649,30.4675555 21.740519,30.4675555 C14.7572731,30.4675555 9.07661158,24.7864101 9.07661158,17.8031642 C9.07661158,10.8204021 14.7572731,5.13925674 21.740519,5.13925674 Z M21.740519,27.5643213 C27.1226313,27.5643213 31.5011923,23.1852765 31.5011923,17.8031642 C31.5011923,16.6370318 31.2955465,15.517835 30.91861,14.4799288 C30.2257047,16.9617101 27.9442466,18.7873606 25.2447227,18.7873606 C21.9969714,18.7873606 19.3545444,16.1454175 19.3545444,12.8976662 C19.3545444,10.8862088 20.368257,9.1070101 21.9118098,8.04394252 C21.854229,8.04297478 21.797616,8.04249091 21.740519,8.04249091 C16.3584067,8.04249091 11.9798457,12.4210519 11.9798457,17.8031642 C11.9798457,23.1852765 16.3584067,27.5643213 21.740519,27.5643213 Z M25.2447227,9.91120597 C26.8918242,9.91120597 28.2311829,11.2510485 28.2311829,12.8976662 C28.2311829,14.5447677 26.8918242,15.8841264 25.2447227,15.8841264 C23.598105,15.8841264 22.2577786,14.5447677 22.2577786,12.8976662 C22.2577786,11.2510485 23.598105,9.91120597 25.2447227,9.91120597" id="path-25"></path>
        <path d="M48.0269818,51.2357927 L46.2439122,52.4836995 C45.6714912,52.8843459 45.0013279,53.0967658 44.3060034,53.0967658 C43.1989034,53.0967658 42.1605133,52.5562804 41.5266405,51.651923 L31.3440305,37.1101069 C30.8253194,36.3683306 30.625964,35.4697796 30.7832225,34.5789706 C30.9399971,33.6876777 31.4349986,32.9120303 32.176291,32.3928352 L33.9583929,31.1449284 C34.5308139,30.7437982 35.201461,30.5318621 35.8972695,30.5318621 C37.0034017,30.5318621 38.0422756,31.0718637 38.6761484,31.976705 L48.8582745,46.5185211 C49.9295679,48.0485255 49.5560185,50.1644993 48.0269818,51.2357927 M21.5069054,32.2360606 C13.4199467,32.2360606 6.84073417,25.6568481 6.84073417,17.5698893 C6.84073417,9.48293054 13.4199467,2.90323417 21.5069054,2.90323417 C29.5938642,2.90323417 36.1735606,9.48293054 36.1735606,17.5698893 C36.1735606,25.6568481 29.5938642,32.2360606 21.5069054,32.2360606 M51.2360233,44.8535163 L41.0538972,30.3117002 C39.8790551,28.6336309 37.9551786,27.6315312 35.9050114,27.628628 C37.9034043,24.7771681 39.0767948,21.3078033 39.0767948,17.5698893 C39.0767948,7.88179689 31.1949979,0 21.5069054,0 C11.8192969,0 3.9375,7.88179689 3.9375,17.5698893 C3.9375,27.2574979 11.8192969,35.1392948 21.5069054,35.1392948 C23.7820733,35.1392948 25.9580473,34.7047774 27.9549885,33.9141299 C27.9438595,33.9673559 27.9336981,34.0210657 27.9240207,34.0747756 C27.6327295,35.7291352 28.002408,37.3984948 28.9662818,38.7751117 L39.1488917,53.3174116 C40.3251854,54.9969326 42.2529329,56 44.3060034,56 C45.5998781,56 46.8463333,55.6061279 47.908917,54.8619322 L49.6915027,53.6140254 C52.5328013,51.6248261 53.2252226,47.6948148 51.2360233,44.8535163 M21.740519,5.13925674 C28.7237649,5.13925674 34.4044265,10.8204021 34.4044265,17.8031642 C34.4044265,24.7864101 28.7237649,30.4675555 21.740519,30.4675555 C14.7572731,30.4675555 9.07661158,24.7864101 9.07661158,17.8031642 C9.07661158,10.8204021 14.7572731,5.13925674 21.740519,5.13925674 Z M21.740519,27.5643213 C27.1226313,27.5643213 31.5011923,23.1852765 31.5011923,17.8031642 C31.5011923,16.6370318 31.2955465,15.517835 30.91861,14.4799288 C30.2257047,16.9617101 27.9442466,18.7873606 25.2447227,18.7873606 C21.9969714,18.7873606 19.3545444,16.1454175 19.3545444,12.8976662 C19.3545444,10.8862088 20.368257,9.1070101 21.9118098,8.04394252 C21.854229,8.04297478 21.797616,8.04249091 21.740519,8.04249091 C16.3584067,8.04249091 11.9798457,12.4210519 11.9798457,17.8031642 C11.9798457,23.1852765 16.3584067,27.5643213 21.740519,27.5643213 Z M25.2447227,9.91120597 C26.8918242,9.91120597 28.2311829,11.2510485 28.2311829,12.8976662 C28.2311829,14.5447677 26.8918242,15.8841264 25.2447227,15.8841264 C23.598105,15.8841264 22.2577786,14.5447677 22.2577786,12.8976662 C22.2577786,11.2510485 23.598105,9.91120597 25.2447227,9.91120597" id="path-27"></path>
    </defs>
    <g id="global/brand/pattern" stroke="none" stroke-width="1" fill="none" fill-rule="evenodd">
        <g id="group_9-copy-+-group_1-copy-+-group_5-copy-+-group_6-copy-+-group_3-copy-+-group_7-copy-+-group_8-copy-+-group_4-copy-+-group_2-copy-Mask">
            <mask id="mask-2" fill="white">
                <use xlink:href="#path-1"></use>
            </mask>
            <g id="Mask"></g>
            <g id="group_9-copy" mask="url(#mask-2)">
                <g transform="translate(42.000000, -99.000000)" id="global/illustration/serverstack">
                    <g transform="translate(0.000000, 300.000000)">
                        <mask id="mask-4" fill="white">
                            <use xlink:href="#path-3"></use>
                        </mask>
                        <g id="Server-Stack"></g>
                        <g id="colors/dark/#000-54%" mask="url(#mask-4)" fill="#000000" fill-opacity="0.54" fill-rule="evenodd">
                            <polygon id="#000-54%" style="mix-blend-mode: multiply;" points="0 0 56 0 56 56 0 56"></polygon>
                        </g>
                    </g>
                </g>
            </g>
            <g id="group_1-copy" mask="url(#mask-2)">
                <g transform="translate(-155.000000, -111.000000)" id="global/illustration/monkey">
                    <g transform="translate(300.000000, 300.000000)">
                        <mask id="mask-6" fill="white">
                            <use xlink:href="#path-5"></use>
                        </mask>
                        <g id="monkey"></g>
                        <g id="colors/dark/#000-54%" mask="url(#mask-6)" fill="#000000" fill-opacity="0.54" fill-rule="evenodd">
                            <g transform="translate(0.000000, -1.312500)" id="#000-54%">
                                <polygon style="mix-blend-mode: multiply;" points="0 0 56 0 56 57 0 57"></polygon>
                            </g>
                        </g>
                    </g>
                </g>
            </g>
            <g id="group_5-copy" mask="url(#mask-2)">
                <g transform="translate(-43.000000, 112.000000)" id="global/illustration/bit_coin">
                    <g>
                        <mask id="mask-8" fill="white">
                            <use xlink:href="#path-7"></use>
                        </mask>
                        <g id="bit_coin"></g>
                        <g id="colors/dark/#000-54%" mask="url(#mask-8)" fill="#000000" fill-opacity="0.54" fill-rule="evenodd">
                            <polygon id="#000-54%" style="mix-blend-mode: multiply;" points="0 0 56 0 56 56 0 56"></polygon>
                        </g>
                    </g>
                    <g transform="translate(300.000000, 0.000000)">
                        <mask id="mask-10" fill="white">
                            <use xlink:href="#path-9"></use>
                        </mask>
                        <g id="bit_coin"></g>
                        <g id="colors/dark/#000-54%" mask="url(#mask-10)" fill="#000000" fill-opacity="0.54" fill-rule="evenodd">
                            <polygon id="#000-54%" style="mix-blend-mode: multiply;" points="0 0 56 0 56 56 0 56"></polygon>
                        </g>
                    </g>
                </g>
            </g>
            <g id="group_6-copy" mask="url(#mask-2)">
                <g transform="translate(129.000000, -18.000000)" id="global/illustration/brush">
                    <g>
                        <mask id="mask-12" fill="white">
                            <use xlink:href="#path-11"></use>
                        </mask>
                        <g id="Pen"></g>
                        <g id="colors/dark/#000-54%" mask="url(#mask-12)" fill="#000000" fill-opacity="0.54" fill-rule="evenodd">
                            <polygon id="#000-54%" style="mix-blend-mode: multiply;" points="0 0 56 0 56 56 0 56"></polygon>
                        </g>
                    </g>
                    <g transform="translate(0.000000, 300.000000)">
                        <mask id="mask-14" fill="white">
                            <use xlink:href="#path-13"></use>
                        </mask>
                        <g id="Pen"></g>
                        <g id="colors/dark/#000-54%" mask="url(#mask-14)" fill="#000000" fill-opacity="0.54" fill-rule="evenodd">
                            <polygon id="#000-54%" style="mix-blend-mode: multiply;" points="0 0 56 0 56 56 0 56"></polygon>
                        </g>
                    </g>
                </g>
            </g>
            <g id="group_3-copy" mask="url(#mask-2)">
                <g transform="translate(33.000000, -11.000000)" id="global/illustration/code_window">
                    <g>
                        <mask id="mask-16" fill="white">
                            <use xlink:href="#path-15"></use>
                        </mask>
                        <g id="Code-window"></g>
                        <g id="colors/dark/#000-54%" mask="url(#mask-16)" fill="#000000" fill-opacity="0.54" fill-rule="evenodd">
                            <polygon id="#000-54%" style="mix-blend-mode: multiply;" points="0 0 56 0 56 56 0 56"></polygon>
                        </g>
                    </g>
                    <g transform="translate(0.000000, 300.000000)">
                        <mask id="mask-18" fill="white">
                            <use xlink:href="#path-17"></use>
                        </mask>
                        <g id="Code-window"></g>
                        <g id="colors/dark/#000-54%" mask="url(#mask-18)" fill="#000000" fill-opacity="0.54" fill-rule="evenodd">
                            <polygon id="#000-54%" style="mix-blend-mode: multiply;" points="0 0 56 0 56 56 0 56"></polygon>
                        </g>
                    </g>
                </g>
            </g>
            <g id="group_7-copy" mask="url(#mask-2)">
                <g transform="translate(44.000000, 80.000000)" id="global/illustration/cloud">
                    <g>
                        <mask id="mask-20" fill="white">
                            <use xlink:href="#path-19"></use>
                        </mask>
                        <g id="Cloud"></g>
                        <g id="colors/dark/#000-54%" mask="url(#mask-20)" fill="#000000" fill-opacity="0.54" fill-rule="evenodd">
                            <polygon id="#000-54%" style="mix-blend-mode: multiply;" points="0 0 56 0 56 56 0 56"></polygon>
                        </g>
                    </g>
                </g>
            </g>
            <g id="group_8-copy" mask="url(#mask-2)">
                <g transform="translate(-77.000000, 0.000000)" id="global/illustration/coffee_cup">
                    <g transform="translate(300.000000, 0.000000)">
                        <mask id="mask-22" fill="white">
                            <use xlink:href="#path-21"></use>
                        </mask>
                        <g id="Coffee-cup"></g>
                        <g id="colors/dark/#000-54%" mask="url(#mask-22)" fill="#000000" fill-opacity="0.54" fill-rule="evenodd">
                            <polygon id="#000-54%" style="mix-blend-mode: multiply;" points="0 0 56 0 56 56 0 56"></polygon>
                        </g>
                    </g>
                </g>
            </g>
            <g id="group_4-copy" mask="url(#mask-2)">
                <g transform="translate(-145.000000, 94.000000)" id="global/illustration/graph_screen">
                    <g transform="translate(300.000000, 0.000000)">
                        <mask id="mask-24" fill="white">
                            <use xlink:href="#path-23"></use>
                        </mask>
                        <g id="Combined-Shape"></g>
                        <g id="colors/dark/#000-54%" mask="url(#mask-24)" fill="#000000" fill-opacity="0.54" fill-rule="evenodd">
                            <polygon id="#000-54%" style="mix-blend-mode: multiply;" points="0 0 56 0 56 56 0 56"></polygon>
                        </g>
                    </g>
                </g>
            </g>
            <g id="group_2-copy" mask="url(#mask-2)">
                <g transform="translate(-49.000000, -81.000000)" id="global/illustration/magnifying_glass">
                    <g transform="translate(0.000000, 300.000000)">
                        <mask id="mask-26" fill="white">
                            <use xlink:href="#path-25"></use>
                        </mask>
                        <g id="Combined-Shape"></g>
                        <g id="colors/dark/#000-54%" mask="url(#mask-26)" fill="#000000" fill-opacity="0.54" fill-rule="evenodd">
                            <polygon id="#000-54%" style="mix-blend-mode: multiply;" points="0 0 56 0 56 56 0 56"></polygon>
                        </g>
                    </g>
                    <g transform="translate(300.000000, 300.000000)">
                        <mask id="mask-28" fill="white">
                            <use xlink:href="#path-27"></use>
                        </mask>
                        <g id="Combined-Shape"></g>
                        <g id="colors/dark/#000-54%" mask="url(#mask-28)" fill="#000000" fill-opacity="0.54" fill-rule="evenodd">
                            <polygon id="#000-54%" style="mix-blend-mode: multiply;" points="0 0 56 0 56 56 0 56"></polygon>
                        </g>
                    </g>
                </g>
            </g>
        </g>
    </g>
</svg>